<?xml version="1.0" encoding="utf-8"?>

<!DOCTYPE svg PUBLIC "-//W3C//DTD SVG 1.1//EN" "http://www.w3.org/Graphics/SVG/1.1/DTD/svg11.dtd">
<svg version="1.1" id="Layer_1" xmlns="http://www.w3.org/2000/svg" xmlns:xlink="http://www.w3.org/1999/xlink" x="0px" y="0px"
	 width="547px" height="552px" viewBox="0 0 547 552" enable-background="new 0 0 547 552" xml:space="preserve">

<defs>
	<style type="text/css">
	text {
	  font-family: Helvetica, Verdana, ArialUnicodeMS, san-serif
	}
	</style>
</defs>

<g>
   <desc>
	PS 3.1 Introduction and Overview
   </desc>
</g>

<g>
	<rect x="1" y="1" fill="#F4ECC0" width="545" height="550"/>
	<g>
		
			<line fill="none" stroke="#EBEDF3" stroke-width="7" stroke-linecap="round" stroke-miterlimit="1" x1="97.299" y1="247.828" x2="97.299" y2="527.554"/>
		
			<line fill="none" stroke="#EBEDF3" stroke-width="7" stroke-linecap="round" stroke-miterlimit="1" x1="272.299" y1="247.828" x2="272.299" y2="527.554"/>
		
			<rect x="22.46" y="81.448" fill="#C7D4E2" stroke="#010101" stroke-width="0.75" stroke-linecap="round" stroke-linejoin="round" stroke-miterlimit="1" width="500" height="165.001"/>
		<g>
			<path fill="#EFF1F4" d="M17.36,266.125c0-1.98,1.62-3.6,3.6-3.6h152.8c1.98,0,3.6,1.62,3.6,3.6v32.801c0,1.979-1.62,3.6-3.6,3.6
				H20.96c-1.98,0-3.6-1.62-3.6-3.6V266.125z"/>
			<path fill="none" stroke="#999999" stroke-width="0.75" stroke-dasharray="4" d="M17.36,266.125c0-1.98,1.62-3.6,3.6-3.6h152.8
				c1.98,0,3.6,1.62,3.6,3.6v32.801c0,1.979-1.62,3.6-3.6,3.6H20.96c-1.98,0-3.6-1.62-3.6-3.6V266.125z"/>
		</g>
		
			<line fill="none" stroke="#EBEDF3" stroke-width="4" stroke-linecap="round" stroke-miterlimit="1" x1="22.3" y1="295.352" x2="172.3" y2="295.352"/>
		<g>
			<path fill="#EFF1F4" d="M21.273,511.093c0-1.979,1.62-3.6,3.6-3.6h144.853c1.98,0,3.6,1.62,3.6,3.6v22.229
				c0,1.979-1.62,3.6-3.6,3.6H24.874c-1.98,0-3.6-1.62-3.6-3.6V511.093z"/>
			<path fill="none" stroke="#999999" stroke-width="0.75" stroke-dasharray="4" d="M21.273,511.093c0-1.979,1.62-3.6,3.6-3.6
				h144.853c1.98,0,3.6,1.62,3.6,3.6v22.229c0,1.979-1.62,3.6-3.6,3.6H24.874c-1.98,0-3.6-1.62-3.6-3.6V511.093z"/>
		</g>
		<g>
			<path fill="#EFF1F4" d="M21.273,449.982c0-1.979,1.62-3.6,3.6-3.6h144.853c1.98,0,3.6,1.62,3.6,3.6v22.229
				c0,1.979-1.62,3.6-3.6,3.6H24.874c-1.98,0-3.6-1.62-3.6-3.6V449.982z"/>
			<path fill="none" stroke="#999999" stroke-width="0.75" stroke-dasharray="4" d="M21.273,449.982c0-1.979,1.62-3.6,3.6-3.6
				h144.853c1.98,0,3.6,1.62,3.6,3.6v22.229c0,1.979-1.62,3.6-3.6,3.6H24.874c-1.98,0-3.6-1.62-3.6-3.6V449.982z"/>
		</g>
		<g>
			<path fill="#EFF1F4" d="M21.273,388.87c0-1.979,1.62-3.6,3.6-3.6h144.853c1.98,0,3.6,1.62,3.6,3.6v22.229
				c0,1.979-1.62,3.6-3.6,3.6H24.874c-1.98,0-3.6-1.62-3.6-3.6V388.87z"/>
			<path fill="none" stroke="#999999" stroke-width="0.75" stroke-dasharray="4" d="M21.273,388.87c0-1.979,1.62-3.6,3.6-3.6
				h144.853c1.98,0,3.6,1.62,3.6,3.6v22.229c0,1.979-1.62,3.6-3.6,3.6H24.874c-1.98,0-3.6-1.62-3.6-3.6V388.87z"/>
		</g>
		<g>
			<path fill="#EFF1F4" d="M21.273,327.758c0-1.979,1.62-3.6,3.6-3.6h144.853c1.98,0,3.6,1.62,3.6,3.6v22.229
				c0,1.979-1.62,3.6-3.6,3.6H24.874c-1.98,0-3.6-1.62-3.6-3.6V327.758z"/>
			<path fill="none" stroke="#999999" stroke-width="0.75" stroke-dasharray="4" d="M21.273,327.758c0-1.979,1.62-3.6,3.6-3.6
				h144.853c1.98,0,3.6,1.62,3.6,3.6v22.229c0,1.979-1.62,3.6-3.6,3.6H24.874c-1.98,0-3.6-1.62-3.6-3.6V327.758z"/>
		</g>
		<g>
			<path fill="#EFF1F4" d="M192.36,266.125c0-1.98,1.62-3.6,3.6-3.6h152.8c1.979,0,3.6,1.62,3.6,3.6v32.801
				c0,1.979-1.62,3.6-3.6,3.6h-152.8c-1.98,0-3.6-1.62-3.6-3.6V266.125z"/>
			<path fill="none" stroke="#999999" stroke-width="0.75" stroke-dasharray="4" d="M192.36,266.125c0-1.98,1.62-3.6,3.6-3.6h152.8
				c1.979,0,3.6,1.62,3.6,3.6v32.801c0,1.979-1.62,3.6-3.6,3.6h-152.8c-1.98,0-3.6-1.62-3.6-3.6V266.125z"/>
		</g>
		
			<line fill="none" stroke="#EBEDF3" stroke-width="4" stroke-linecap="round" stroke-miterlimit="1" x1="197.3" y1="295.352" x2="347.3" y2="295.352"/>
		<g>
			<path fill="#EFF1F4" d="M196.273,511.093c0-1.979,1.62-3.6,3.6-3.6h144.853c1.979,0,3.6,1.62,3.6,3.6v22.229
				c0,1.979-1.62,3.6-3.6,3.6H199.874c-1.98,0-3.6-1.62-3.6-3.6V511.093z"/>
			<path fill="none" stroke="#999999" stroke-width="0.75" stroke-dasharray="4" d="M196.273,511.093c0-1.979,1.62-3.6,3.6-3.6
				h144.853c1.979,0,3.6,1.62,3.6,3.6v22.229c0,1.979-1.62,3.6-3.6,3.6H199.874c-1.98,0-3.6-1.62-3.6-3.6V511.093z"/>
		</g>
		<g>
			<path fill="#EFF1F4" d="M196.273,449.982c0-1.979,1.62-3.6,3.6-3.6h144.853c1.979,0,3.6,1.62,3.6,3.6v22.229
				c0,1.979-1.62,3.6-3.6,3.6H199.874c-1.98,0-3.6-1.62-3.6-3.6V449.982z"/>
			<path fill="none" stroke="#999999" stroke-width="0.75" stroke-dasharray="4" d="M196.273,449.982c0-1.979,1.62-3.6,3.6-3.6
				h144.853c1.979,0,3.6,1.62,3.6,3.6v22.229c0,1.979-1.62,3.6-3.6,3.6H199.874c-1.98,0-3.6-1.62-3.6-3.6V449.982z"/>
		</g>
		<g>
			<path fill="#EFF1F4" d="M196.273,388.87c0-1.979,1.62-3.6,3.6-3.6h144.853c1.979,0,3.6,1.62,3.6,3.6v22.229
				c0,1.979-1.62,3.6-3.6,3.6H199.874c-1.98,0-3.6-1.62-3.6-3.6V388.87z"/>
			<path fill="none" stroke="#999999" stroke-width="0.75" stroke-dasharray="4" d="M196.273,388.87c0-1.979,1.62-3.6,3.6-3.6
				h144.853c1.979,0,3.6,1.62,3.6,3.6v22.229c0,1.979-1.62,3.6-3.6,3.6H199.874c-1.98,0-3.6-1.62-3.6-3.6V388.87z"/>
		</g>
		<g>
			<path fill="#EFF1F4" d="M196.273,327.758c0-1.979,1.62-3.6,3.6-3.6h144.853c1.979,0,3.6,1.62,3.6,3.6v22.229
				c0,1.979-1.62,3.6-3.6,3.6H199.874c-1.98,0-3.6-1.62-3.6-3.6V327.758z"/>
			<path fill="none" stroke="#999999" stroke-width="0.75" stroke-dasharray="4" d="M196.273,327.758c0-1.979,1.62-3.6,3.6-3.6
				h144.853c1.979,0,3.6,1.62,3.6,3.6v22.229c0,1.979-1.62,3.6-3.6,3.6H199.874c-1.98,0-3.6-1.62-3.6-3.6V327.758z"/>
		</g>
		
			<line fill="none" stroke="#276092" stroke-width="7" stroke-linecap="round" stroke-miterlimit="1" x1="447.139" y1="115.308" x2="447.139" y2="527.554"/>
		<g>
			<path fill="#D4DCE6" d="M367.36,266.125c0-1.98,1.62-3.6,3.6-3.6h152.801c1.979,0,3.6,1.62,3.6,3.6v32.801
				c0,1.979-1.62,3.6-3.6,3.6H370.96c-1.979,0-3.6-1.62-3.6-3.6V266.125z"/>
		</g>
		<g>
			<path fill="#D4DCE6" d="M392.618,213.167c0-1.98,1.62-3.6,3.6-3.6h102.801c1.979,0,3.6,1.62,3.6,3.6v17.678
				c0,1.98-1.62,3.6-3.6,3.6H396.218c-1.979,0-3.6-1.62-3.6-3.6V213.167z"/>
			<path fill="none" stroke="#000000" stroke-width="0.75" d="M392.618,213.167c0-1.98,1.62-3.6,3.6-3.6h102.801
				c1.979,0,3.6,1.62,3.6,3.6v17.678c0,1.98-1.62,3.6-3.6,3.6H396.218c-1.979,0-3.6-1.62-3.6-3.6V213.167z"/>
		</g>
		<g>
			<path fill="#D4DCE6" d="M371.523,511.093c0-1.979,1.62-3.6,3.6-3.6h144.854c1.979,0,3.6,1.62,3.6,3.6v22.229
				c0,1.979-1.62,3.6-3.6,3.6H375.123c-1.979,0-3.6-1.62-3.6-3.6V511.093z"/>
			<path fill="none" stroke="#000000" stroke-width="0.75" d="M371.523,511.093c0-1.979,1.62-3.6,3.6-3.6h144.854
				c1.979,0,3.6,1.62,3.6,3.6v22.229c0,1.979-1.62,3.6-3.6,3.6H375.123c-1.979,0-3.6-1.62-3.6-3.6V511.093z"/>
		</g>
		<text transform="matrix(1 0 0 1 393.2637 519.645)"><tspan x="0" y="0" font-size="9">Media Storage Interchange</tspan><tspan x="5.766" y="10.8" font-size="9">Off-Line Communication</tspan></text>
		<g>
			<path fill="#D4DCE6" d="M371.523,327.758c0-1.979,1.62-3.6,3.6-3.6h144.854c1.979,0,3.6,1.62,3.6,3.6v22.229
				c0,1.979-1.62,3.6-3.6,3.6H375.123c-1.979,0-3.6-1.62-3.6-3.6V327.758z"/>
			<path fill="none" stroke="#000000" stroke-width="0.75" stroke-dasharray="4" d="M371.523,327.758c0-1.979,1.62-3.6,3.6-3.6
				h144.854c1.979,0,3.6,1.62,3.6,3.6v22.229c0,1.979-1.62,3.6-3.6,3.6H375.123c-1.979,0-3.6-1.62-3.6-3.6V327.758z"/>
		</g>
		<text transform="matrix(1 0 0 1 418.7871 336.311)"><tspan x="0" y="0" font-size="9">Security Layer</tspan><tspan x="9.004" y="10.8" font-size="9">(Optional)</tspan></text>
		<text transform="matrix(1 0 0 1 414.4395 274.9678)"><tspan x="0" y="0" font-size="11">BOUNDARY:</tspan><tspan x="-30.867" y="13.2" font-size="11">DICOM Basic File Service</tspan></text>
		
			<line fill="#5D89B4" stroke="#276092" stroke-width="4" stroke-linecap="round" stroke-miterlimit="1" x1="372.133" y1="295.352" x2="522.133" y2="295.352"/>
		<text transform="matrix(1 0 0 1 397.9199 225.8228)" font-size="12">Media Interchange</text>
		<text transform="matrix(1 0 0 1 23.7095 76.6221)" font-size="12">DICOM Application Entity</text>
		<polyline fill="#5D89B4" points="217.415,15.078 332.025,15.078 331.544,32.566 369.924,32.566 272.92,81.641 174.995,32.566 
			216.954,32.566 		"/>
		<text transform="matrix(1 0 0 1 228.7749 29.4849)"><tspan x="0" y="0" fill="#FFFFFF" font-size="12"> Medical Images</tspan><tspan x="-17.687" y="14.4" fill="#FFFFFF" font-size="12">and related information</tspan></text>
		<g>
			<path fill="#D4DCE6" d="M41.414,100.297c0-1.98,1.62-3.6,3.6-3.6h455.615c1.979,0,3.6,1.62,3.6,3.6v17.678
				c0,1.98-1.62,3.6-3.6,3.6H45.014c-1.98,0-3.6-1.62-3.6-3.6V100.297z"/>
			<path fill="none" stroke="#000000" stroke-width="0.75" d="M41.414,100.297c0-1.98,1.62-3.6,3.6-3.6h455.615
				c1.979,0,3.6,1.62,3.6,3.6v17.678c0,1.98-1.62,3.6-3.6,3.6H45.014c-1.98,0-3.6-1.62-3.6-3.6V100.297z"/>
		</g>
		<g>
			<path fill="#D4DCE6" d="M41.414,137.797c0-1.98,1.62-3.6,3.6-3.6h455.615c1.979,0,3.6,1.62,3.6,3.6v17.678
				c0,1.98-1.62,3.6-3.6,3.6H45.014c-1.98,0-3.6-1.62-3.6-3.6V137.797z"/>
			<path fill="none" stroke="#000000" stroke-width="0.75" d="M41.414,137.797c0-1.98,1.62-3.6,3.6-3.6h455.615
				c1.979,0,3.6,1.62,3.6,3.6v17.678c0,1.98-1.62,3.6-3.6,3.6H45.014c-1.98,0-3.6-1.62-3.6-3.6V137.797z"/>
		</g>
		<g>
			<path fill="#D4DCE6" d="M41.414,175.655c0-1.98,1.62-3.6,3.6-3.6h455.615c1.979,0,3.6,1.62,3.6,3.6v17.678
				c0,1.98-1.62,3.6-3.6,3.6H45.014c-1.98,0-3.6-1.62-3.6-3.6V175.655z"/>
			<path fill="none" stroke="#000000" stroke-width="0.75" d="M41.414,175.655c0-1.98,1.62-3.6,3.6-3.6h455.615
				c1.979,0,3.6,1.62,3.6,3.6v17.678c0,1.98-1.62,3.6-3.6,3.6H45.014c-1.98,0-3.6-1.62-3.6-3.6V175.655z"/>
		</g>
		<text transform="matrix(1 0 0 1 197.1675 112.1338)" font-size="12">Service Class Specifications</text>
		<text transform="matrix(1 0 0 1 190.8276 150.0298)" font-size="12">Information Objects Definitions</text>
		<text transform="matrix(1 0 0 1 141.0601 187.9263)" font-size="12">Dataset Structure and Encoding - Data Dictionary</text>
		<g>
			<path fill="#E4E8EE" d="M39.803,213.167c0-1.98,1.62-3.6,3.6-3.6h107.8c1.98,0,3.6,1.62,3.6,3.6v17.678c0,1.98-1.62,3.6-3.6,3.6
				h-107.8c-1.98,0-3.6-1.62-3.6-3.6V213.167z"/>
			<path fill="none" stroke="#999999" stroke-width="0.75" stroke-dasharray="4" d="M39.803,213.167c0-1.98,1.62-3.6,3.6-3.6h107.8
				c1.98,0,3.6,1.62,3.6,3.6v17.678c0,1.98-1.62,3.6-3.6,3.6h-107.8c-1.98,0-3.6-1.62-3.6-3.6V213.167z"/>
		</g>
		<g>
			<path fill="#E4E8EE" d="M214.803,213.167c0-1.98,1.62-3.6,3.6-3.6h107.8c1.979,0,3.6,1.62,3.6,3.6v17.678
				c0,1.98-1.62,3.6-3.6,3.6h-107.8c-1.98,0-3.6-1.62-3.6-3.6V213.167z"/>
			<path fill="none" stroke="#999999" stroke-width="0.75" stroke-dasharray="4" d="M214.803,213.167c0-1.98,1.62-3.6,3.6-3.6h107.8
				c1.979,0,3.6,1.62,3.6,3.6v17.678c0,1.98-1.62,3.6-3.6,3.6h-107.8c-1.98,0-3.6-1.62-3.6-3.6V213.167z"/>
		</g>
		<rect x="364.64" y="380.256" fill="#C7D4E2" width="165" height="100"/>
		<g>
			<path fill="#D4DCE6" d="M371.776,396.73c0-1.979,1.62-3.6,3.6-3.6h33.989c1.979,0,3.6,1.62,3.6,3.6v71.605
				c0,1.979-1.62,3.6-3.6,3.6h-33.989c-1.979,0-3.6-1.62-3.6-3.6V396.73z"/>
			<path fill="none" stroke="#000000" stroke-width="0.75" d="M371.776,396.73c0-1.979,1.62-3.6,3.6-3.6h33.989
				c1.979,0,3.6,1.62,3.6,3.6v71.605c0,1.979-1.62,3.6-3.6,3.6h-33.989c-1.979,0-3.6-1.62-3.6-3.6V396.73z"/>
		</g>
		<g>
			<text transform="matrix(1 0 0 1 373.4668 457.8306)"><tspan x="0" y="0" font-size="5">Physical Medium</tspan><tspan x="14.725" y="6" font-size="5">and</tspan><tspan x="1.392" y="12" font-size="5">Medium Format</tspan></text>
		</g>
		<g>
			<polygon fill="#C7D4E2" stroke="#000000" stroke-width="0.75" points="385.447,450.419 380.064,450.419 380.064,444.778 
				381.743,443.194 385.447,443.194 			"/>
			<polygon fill="#C7D4E2" stroke="#000000" stroke-width="0.75" points="395.052,450.419 389.67,450.419 389.67,444.778 
				391.35,443.194 395.052,443.194 			"/>
			<polygon fill="#C7D4E2" stroke="#000000" stroke-width="0.75" points="395.052,437.414 389.67,437.414 389.67,431.771 
				391.35,430.188 395.052,430.188 			"/>
			<polygon fill="#C7D4E2" stroke="#000000" stroke-width="0.75" points="404.658,450.419 399.275,450.419 399.275,444.778 
				400.954,443.194 404.658,443.194 			"/>
			<line fill="none" stroke="#000000" stroke-width="0.75" x1="392.565" y1="437.315" x2="392.565" y2="443.192"/>
			<polyline fill="none" stroke="#000000" stroke-width="0.75" points="382.715,443.192 382.715,439.806 402.417,439.806 
				402.417,443.192 			"/>
		</g>
		<text transform="matrix(1 0 0 1 372.125 391.4546)" font-size="6">MEDIUM A</text>
		<g>
			<g>
				
					<line fill="none" stroke="#276092" stroke-width="4" stroke-linecap="round" stroke-miterlimit="1" x1="461.328" y1="432.023" x2="462.328" y2="432.023"/>
				
					<line fill="none" stroke="#276092" stroke-width="4" stroke-linecap="round" stroke-miterlimit="1" stroke-dasharray="1.5556,6.2222" x1="468.551" y1="432.023" x2="473.217" y2="432.023"/>
				
					<line fill="none" stroke="#276092" stroke-width="4" stroke-linecap="round" stroke-miterlimit="1" x1="476.328" y1="432.023" x2="477.328" y2="432.023"/>
			</g>
		</g>
		<g>
			<path fill="#D4DCE6" d="M481.455,396.73c0-1.979,1.62-3.6,3.6-3.6h33.185c1.979,0,3.6,1.62,3.6,3.6v71.605
				c0,1.979-1.62,3.6-3.6,3.6h-33.185c-1.979,0-3.6-1.62-3.6-3.6V396.73z"/>
			<path fill="none" stroke="#000000" stroke-width="0.75" d="M481.455,396.73c0-1.979,1.62-3.6,3.6-3.6h33.185
				c1.979,0,3.6,1.62,3.6,3.6v71.605c0,1.979-1.62,3.6-3.6,3.6h-33.185c-1.979,0-3.6-1.62-3.6-3.6V396.73z"/>
		</g>
		<g>
			<text transform="matrix(1 0 0 1 482.6504 457.8306)"><tspan x="0" y="0" font-size="5">Physical Medium</tspan><tspan x="14.724" y="6" font-size="5">and</tspan><tspan x="1.392" y="12" font-size="5">Medium Format</tspan></text>
		</g>
		<g>
			<polygon fill="#C7D4E2" stroke="#000000" stroke-width="0.75" points="494.63,450.419 489.248,450.419 489.248,444.778 
				490.926,443.194 494.63,443.194 			"/>
			<polygon fill="#C7D4E2" stroke="#000000" stroke-width="0.75" points="504.235,450.419 498.854,450.419 498.854,444.778 
				500.532,443.194 504.235,443.194 			"/>
			<polygon fill="#C7D4E2" stroke="#000000" stroke-width="0.75" points="504.235,437.414 498.854,437.414 498.854,431.771 
				500.532,430.188 504.235,430.188 			"/>
			<polygon fill="#C7D4E2" stroke="#000000" stroke-width="0.75" points="513.842,450.419 508.458,450.419 508.458,444.778 
				510.138,443.194 513.842,443.194 			"/>
			<line fill="none" stroke="#000000" stroke-width="0.75" x1="501.749" y1="437.315" x2="501.749" y2="443.192"/>
			<polyline fill="none" stroke="#000000" stroke-width="0.75" points="491.898,443.192 491.898,439.806 511.6,439.806 
				511.6,443.192 			"/>
		</g>
		<text transform="matrix(1 0 0 1 482.4658 391.4546)" font-size="6">MEDIUM n</text>
		<g>
			<path fill="#D4DCE6" d="M415.651,396.73c0-1.979,1.62-3.6,3.6-3.6h33.458c1.979,0,3.6,1.62,3.6,3.6v71.605
				c0,1.979-1.62,3.6-3.6,3.6h-33.458c-1.979,0-3.6-1.62-3.6-3.6V396.73z"/>
			<path fill="none" stroke="#000000" stroke-width="0.75" d="M415.651,396.73c0-1.979,1.62-3.6,3.6-3.6h33.458
				c1.979,0,3.6,1.62,3.6,3.6v71.605c0,1.979-1.62,3.6-3.6,3.6h-33.458c-1.979,0-3.6-1.62-3.6-3.6V396.73z"/>
		</g>
		<g>
			<text transform="matrix(1 0 0 1 417.2461 457.8306)"><tspan x="0" y="0" font-size="5">Physical Medium</tspan><tspan x="14.724" y="6" font-size="5">and</tspan><tspan x="1.392" y="12" font-size="5">Medium Format</tspan></text>
		</g>
		<g>
			<polygon fill="#C7D4E2" stroke="#000000" stroke-width="0.75" points="429.229,450.419 423.847,450.419 423.847,444.778 
				425.524,443.194 429.229,443.194 			"/>
			<polygon fill="#C7D4E2" stroke="#000000" stroke-width="0.75" points="438.83,450.419 433.451,450.419 433.451,444.778 
				435.13,443.194 438.83,443.194 			"/>
			<polygon fill="#C7D4E2" stroke="#000000" stroke-width="0.75" points="438.83,437.414 433.451,437.414 433.451,431.771 
				435.13,430.188 438.83,430.188 			"/>
			<polygon fill="#C7D4E2" stroke="#000000" stroke-width="0.75" points="448.435,450.419 443.052,450.419 443.052,444.778 
				444.731,443.194 448.435,443.194 			"/>
			<line fill="none" stroke="#000000" stroke-width="0.75" x1="436.345" y1="437.315" x2="436.345" y2="443.192"/>
			<polyline fill="none" stroke="#000000" stroke-width="0.75" points="426.495,443.192 426.495,439.806 446.193,439.806 
				446.193,443.192 			"/>
		</g>
		<text transform="matrix(1 0 0 1 416.127 391.4546)" font-size="6">MEDIUM B</text>
		<g>
			<path fill="#9CB6D3" stroke="#000000" stroke-width="0.5" stroke-miterlimit="3.8637" d="M486.545,411.013
				c0-8.291,6.714-15.004,14.996-15.004c8.291,0,15.004,6.713,15.004,15.004c0,8.285-6.713,14.998-15.004,14.998
				C493.259,426.011,486.545,419.298,486.545,411.013z"/>
			<path fill="#D4DCE6" stroke="#000000" stroke-width="0.5" stroke-miterlimit="3.8637" d="M508.591,398.82
				c1.654,0.879,2.653,1.766,3.867,3.174l-22.184,17.602c1.204,1.621,2.285,2.609,4.037,3.633L508.591,398.82z"/>
			<path fill="none" stroke="#000000" stroke-width="0.5" stroke-miterlimit="3.8637" d="M487.437,411.013
				c0-7.799,6.315-14.113,14.106-14.113c7.797,0,14.112,6.314,14.112,14.113c0,7.789-6.315,14.105-14.112,14.105
				C493.752,425.119,487.437,418.802,487.437,411.013z"/>
			<path fill="#FFFFFF" stroke="#000000" stroke-width="0.5" stroke-miterlimit="3.8637" d="M497.115,411.011
				c0-2.449,1.982-4.432,4.428-4.432c2.451,0,4.434,1.982,4.434,4.432c0,2.445-1.982,4.43-4.434,4.43
				C499.098,415.441,497.115,413.457,497.115,411.011z"/>
			<circle stroke="#000000" stroke-width="0.5" stroke-miterlimit="3.8637" cx="501.545" cy="411.011" r="1.599"/>
		</g>
		<g>
			<path fill="#9CB6D3" stroke="#000000" stroke-width="0.5" stroke-miterlimit="3.8637" d="M377.361,411.013
				c0-8.291,6.714-15.004,14.996-15.004c8.291,0,15.004,6.713,15.004,15.004c0,8.285-6.713,14.998-15.004,14.998
				C384.075,426.011,377.361,419.298,377.361,411.013z"/>
			<path fill="#D4DCE6" stroke="#000000" stroke-width="0.5" stroke-miterlimit="3.8637" d="M399.407,398.82
				c1.654,0.879,2.653,1.766,3.867,3.174l-22.184,17.602c1.204,1.621,2.285,2.609,4.037,3.633L399.407,398.82z"/>
			<path fill="none" stroke="#000000" stroke-width="0.5" stroke-miterlimit="3.8637" d="M378.253,411.013
				c0-7.799,6.315-14.113,14.106-14.113c7.797,0,14.112,6.314,14.112,14.113c0,7.789-6.315,14.105-14.112,14.105
				C384.568,425.119,378.253,418.802,378.253,411.013z"/>
			<path fill="#FFFFFF" stroke="#000000" stroke-width="0.5" stroke-miterlimit="3.8637" d="M387.932,411.011
				c0-2.449,1.982-4.432,4.428-4.432c2.451,0,4.434,1.982,4.434,4.432c0,2.445-1.982,4.43-4.434,4.43
				C389.914,415.441,387.932,413.457,387.932,411.011z"/>
			<circle stroke="#000000" stroke-width="0.5" stroke-miterlimit="3.8637" cx="392.362" cy="411.011" r="1.599"/>
		</g>
		<g>
			<path fill="#595A5C" stroke="#000000" stroke-width="0.25" stroke-linecap="round" stroke-linejoin="round" d="M419.565,418.908
				v-2.923l5.884-3.327v2.654L419.565,418.908z"/>
			<polygon fill="#A8AAAD" stroke="#000000" stroke-width="0.25" stroke-linecap="round" stroke-linejoin="round" points="
				425.534,415.496 419.565,418.908 425.534,422.389 431.396,418.807 			"/>
			<path fill="#EC2227" stroke="#010101" stroke-width="0.5" stroke-miterlimit="10" d="M425.13,411.78l6.81,3.933
				c0.516,0.298,1.137,0.337,1.551,0.097l18.004-10.503c1.904-1.11,1.546-3.087-0.815-4.45c-2.362-1.365-5.803-1.576-7.71-0.474
				l-18.002,10.5C424.548,411.125,424.614,411.483,425.13,411.78"/>
			
				<path fill="#ED1C24" stroke="#010101" stroke-width="0.5" stroke-linecap="round" stroke-linejoin="round" stroke-miterlimit="10" d="
				M424.693,411.288c0.011,0.17,0.157,0.349,0.437,0.508v0.001l6.81,3.931c0.516,0.299,1.137,0.338,1.551,0.098l18.004-10.502
				c0.785-0.459,1.187-1.063,1.22-1.713l-0.001,3.778c0.001,0.685-0.398,1.323-1.224,1.798l-17.998,10.562
				c-0.416,0.24-1.037,0.201-1.553-0.098l-6.809-3.931c-0.291-0.169-0.438-0.355-0.437-0.532v-3.896V411.288z"/>
			
				<path fill="#ED1C24" stroke="#010101" stroke-width="0.5" stroke-linecap="round" stroke-linejoin="round" stroke-miterlimit="10" d="
				M452.653,403.703c-0.007,0.648-0.442,1.191-1.228,1.648l-17.95,10.432c-0.481,0.291-1.026,0.233-1.545-0.064l-6.753-3.91h0.004
				c-0.237-0.135-0.396-0.269-0.396-0.403"/>
			<path fill="#BDBEC0" d="M425.09,421.648l6.407-3.743l-0.003-0.438l-6.404,3.689V421.648L425.09,421.648z"/>
			<path fill="#E7E7E7" d="M419.973,418.693v-0.491l5.117,2.954v0.492L419.973,418.693z"/>
			<path fill="#D2D3D4" d="M425.09,421.156l-5.117-2.954l6.396-3.693l5.128,2.955L425.09,421.156L425.09,421.156z"/>
			<polyline fill="#939598" points="421.352,418.143 421.989,418.513 427.648,415.245 427.01,414.877 421.352,418.143 			"/>
			<polyline fill="#939598" points="422.416,418.759 423.057,419.128 428.714,415.862 428.075,415.493 422.416,418.759 			"/>
			<polyline fill="#939598" points="423.483,419.376 424.122,419.746 429.78,416.476 429.142,416.108 423.483,419.376 			"/>
			<polyline fill="#939598" points="424.548,419.99 425.188,420.359 430.848,417.093 430.208,416.723 424.548,419.99 			"/>
			<polygon fill="#A8AAAD" stroke="#000000" stroke-width="0.25" stroke-linecap="round" stroke-linejoin="round" points="
				425.534,412.573 419.565,415.985 425.534,419.466 431.396,416.085 			"/>
			<path fill="#595A5C" stroke="#000000" stroke-width="0.25" stroke-linecap="round" stroke-linejoin="round" d="M425.534,422.343
				v-2.877l5.861-3.381v2.654L425.534,422.343z"/>
			<path fill="#424143" d="M425.176,416.774l1.62-0.938l0.769,0.444l-1.622,0.937L425.176,416.774z"/>
			<path fill="#424143" d="M423.471,415.788l1.619-0.936l0.768,0.442l-1.619,0.937L423.471,415.788z"/>
			<path fill="#FFFFFF" d="M433.122,408.669c-0.244,0.142-0.25,0.378-0.043,0.585l-1.168,0.674c-0.03,0.018-0.049,0.04-0.057,0.066
				l-0.465,1.832l-0.377,0.218c-0.365-0.132-0.795-0.134-1.048,0.014c-0.308,0.177-0.233,0.507,0.161,0.735
				c0.397,0.229,0.969,0.27,1.276,0.094c0.242-0.143,0.248-0.378,0.043-0.585l0.473-0.272l0.002,0.002l0.001-0.004l1.049-0.604
				l0.002,0.001l2.832-0.24c0.047-0.004,0.086-0.015,0.116-0.032l1.066-0.615l0.295,0.17l0.146,0.085l0.114-0.067l0.896-0.518
				l0.113-0.066l-0.146-0.084l-1.08-0.625l-0.147-0.084l-0.113,0.064l-0.898,0.521l-0.112,0.063l0.146,0.087l0.348,0.198
				l-1.021,0.592l-1.875,0.158l4.022-2.323l0.566,0.325l0.203,0.119l0.035-0.139l0.268-1.052l0.035-0.136l-0.238,0.019L436.722,408
				l-0.238,0.021l0.203,0.117l0.547,0.315l-5.16,2.979l0.324-1.275l1.115-0.645c0.364,0.131,0.793,0.131,1.045-0.014
				c0.307-0.178,0.235-0.508-0.16-0.736C434.001,408.534,433.432,408.493,433.122,408.669"/>
			
				<line fill="#ED1C24" stroke="#010101" stroke-width="0.5" stroke-linecap="round" stroke-linejoin="round" stroke-miterlimit="10" x1="432.853" y1="415.962" x2="432.853" y2="419.462"/>
		</g>
	</g>
</g>
</svg>
